<svg xmlns="http://www.w3.org/2000/svg" width="64" height="64" viewBox="0 0 64 64">
  <rect width="64" height="64" fill="#8a5b36"/>
  <g fill="#a9784c">
    <rect x="0" y="0" width="8" height="8"/><rect x="16" y="8" width="8" height="8"/><rect x="40" y="0" width="8" height="8"/><rect x="56" y="16" width="8" height="8"/>
    <rect x="8" y="32" width="8" height="8"/><rect x="32" y="24" width="8" height="8"/><rect x="48" y="40" width="8" height="8"/><rect x="24" y="56" width="8" height="8"/>
  </g>
  <g fill="#6d472b">
    <rect x="8" y="16" width="16" height="8"/><rect x="32" y="40" width="16" height="8"/><rect x="0" y="48" width="8" height="8"/><rect x="48" y="8" width="8" height="8"/>
  </g>
  <g fill="#b68b65">
    <rect x="24" y="16" width="8" height="8"/><rect x="40" y="24" width="8" height="8"/><rect x="16" y="40" width="8" height="8"/><rect x="56" y="56" width="8" height="8"/>
  </g>
</svg>
