<svg xmlns="http://www.w3.org/2000/svg" width="64" height="64" viewBox="0 0 64 64">
  <rect width="64" height="64" fill="#6fb344"/>
  <g fill="#88c653">
    <rect x="0" y="0" width="8" height="8"/><rect x="16" y="8" width="8" height="8"/><rect x="32" y="0" width="8" height="8"/><rect x="48" y="16" width="8" height="8"/>
    <rect x="8" y="32" width="8" height="8"/><rect x="24" y="48" width="8" height="8"/><rect x="48" y="40" width="8" height="8"/>
  </g>
  <g fill="#4f8e35">
    <rect x="8" y="8" width="8" height="16"/><rect x="24" y="24" width="8" height="8"/><rect x="40" y="32" width="8" height="16"/><rect x="56" y="0" width="8" height="8"/>
  </g>
  <g fill="#3d722d">
    <rect x="0" y="56" width="8" height="8"/><rect x="32" y="56" width="8" height="8"/><rect x="56" y="48" width="8" height="8"/>
  </g>
</svg>
